<?xml version="1.0" standalone="no"?>
<!DOCTYPE svg PUBLIC "-//W3C//DTD SVG 20010904//EN"
 "http://www.w3.org/TR/2001/REC-SVG-20010904/DTD/svg10.dtd">
<svg version="1.0" xmlns="http://www.w3.org/2000/svg"
 width="1274.000000pt" height="826.000000pt" viewBox="0 0 1274.000000 826.000000"
 preserveAspectRatio="xMidYMid meet">

<g transform="translate(0.000000,826.000000) scale(0.100000,-0.100000)"
fill="#000000" stroke="none">
<path d="M6412 7195 c-26 -32 -75 -167 -162 -444 -38 -123 -71 -226 -73 -227
-1 -2 -61 -25 -132 -52 -221 -83 -349 -141 -665 -299 -341 -170 -389 -198
-409 -237 -13 -24 -13 -28 2 -43 15 -16 36 -7 299 125 156 77 326 160 378 183
114 50 484 198 487 195 2 -1 -31 -126 -73 -277 -63 -228 -262 -1019 -330
-1314 l-19 -80 -372 -185 c-204 -102 -381 -194 -392 -204 -27 -25 -27 -57 2
-84 45 -42 67 -44 358 -37 l277 7 -149 -589 c-138 -547 -159 -646 -143 -687
14 -36 67 -10 115 57 33 45 37 69 12 65 -15 -3 -17 3 -15 37 6 68 251 1109
263 1119 2 2 159 8 349 15 887 29 1004 36 1024 57 21 21 7 54 -31 72 -32 15
-76 15 -670 -11 -350 -15 -638 -25 -641 -23 -7 8 69 299 82 313 6 6 286 149
621 317 608 304 786 403 953 526 223 165 384 365 436 539 24 81 22 245 -4 315
-75 200 -325 300 -780 313 -231 6 -367 -8 -577 -62 -75 -19 -138 -33 -141 -30
-7 6 44 174 130 436 34 102 58 193 55 202 -9 25 -43 21 -65 -8z m790 -650
c275 -36 446 -112 512 -229 33 -58 39 -104 22 -184 -25 -121 -85 -221 -210
-351 -98 -101 -198 -181 -371 -294 -147 -96 -276 -166 -800 -432 -203 -103
-408 -208 -453 -232 -46 -25 -86 -43 -88 -40 -11 11 164 695 328 1285 l101
362 96 30 c306 94 584 122 863 85z m-1522 -1950 c0 -10 -63 -260 -67 -264 -8
-10 -446 -19 -471 -10 l-27 10 25 19 c14 11 86 46 160 79 74 33 187 85 250
115 115 55 130 61 130 51z"/>
<path d="M5280 2175 l0 -105 60 0 60 0 0 -370 0 -370 -60 0 -60 0 0 -105 0
-105 240 0 240 0 0 105 0 105 -50 0 -50 0 0 125 0 125 69 0 c80 0 126 -13 163
-48 36 -33 46 -65 78 -252 l26 -155 167 -3 167 -2 0 115 0 115 -48 0 -48 0
-13 53 c-34 134 -53 180 -92 221 l-39 43 25 11 c39 18 105 83 128 126 18 34
22 58 22 136 0 80 -4 103 -24 144 -49 99 -144 166 -262 186 -35 5 -207 10
-381 10 l-318 0 0 -105z m631 -128 c52 -21 79 -61 79 -114 0 -106 -56 -142
-222 -143 l-108 0 0 141 0 142 108 -5 c61 -3 122 -12 143 -21z"/>
<path d="M6500 2210 l0 -70 55 0 55 0 0 -445 0 -445 -55 0 -55 0 0 -65 0 -65
243 0 c270 0 346 11 450 67 89 48 182 145 227 237 91 184 91 368 1 551 -79
157 -222 265 -392 294 -36 6 -170 11 -297 11 l-232 0 0 -70z m594 -105 c77
-39 163 -133 194 -211 94 -243 -1 -513 -216 -612 -47 -21 -69 -24 -180 -26
l-127 -1 -3 443 -2 444 137 -4 c130 -3 141 -5 197 -33z"/>
</g>
</svg>
